# xmcd CD database file
#
# Track frame offsets:
#	150
#	15844
#	46067
#	67259
#	84928
#	121150
#	137763
#	157544
#	172970
#	209512
#	223629
#	259215
#	275624
#	285944
#	318166
#
# Disc length: 4409 seconds
#
# Revision: 0
# Processed by: cddbd v1.5.2PL0 Copyright (c) Steve Scherf et al.
# Submitted via: CDex 1.51
#
DISCID=c511370f
DTITLE=Various Artist - Original Jazz v2 D2
DYEAR=2012
DGENRE=Jazz
TTITLE0=Amazing Love-Count Basie and Joe Williams
TTITLE1=Blue Rondo A'la Turk-The Dave Brubeck Quartet
TTITLE2=Blowing The Blues Away-Horace Silver
TTITLE3=Can't Help Lovin' Dat Man-Margaret Whiting
TTITLE4=Basin Street Blues-Duke Ellington and Johnny Hodges
TTITLE5=Caravan-Quincy Jones
TTITLE6=Walkin' Bass-Henry Mancini
TTITLE7=Moonglow-Benny Goodman
TTITLE8=Let's Play One Stardust-Tommy Flanagan, Paul Chambers and Guests
TTITLE9=Hello Young Lovers-Mel Tormé
TTITLE10=Jack The Ripper-Rahsaan Roland Kirk
TTITLE11=Learning The Blues-Oscar Peterson
TTITLE12=Anything Goes-Tony Bennett and The Count Basie Orchestra
TTITLE13=Loveless Love-Duke Ellington and Johnny Hodges
TTITLE14=Misty-Erroll Garner
EXTD=YEAR: 2012
EXTT0=
EXTT1=
EXTT2=
EXTT3=
EXTT4=
EXTT5=
EXTT6=
EXTT7=
EXTT8=
EXTT9=
EXTT10=
EXTT11=
EXTT12=
EXTT13=
EXTT14=
PLAYORDER=
